<svg xmlns="http://www.w3.org/2000/svg" width="146.089" height="146.089" viewBox="0 0 146.089 146.089">
  <g id="office" transform="translate(-8 -8)">
    <path id="Trazado_28" data-name="Trazado 28" d="M151.733,149.376h-9.425V132.65c6.677-1.314,11.781-8.1,11.781-16.261,0-9.1-6.341-16.494-14.138-16.494s-14.138,7.4-14.138,16.494c0,8.159,5.1,14.948,11.781,16.261v7.611l-3.4-2.271a2.358,2.358,0,0,0-2.615,3.923l6.02,4.012v3.452H123.457V19.781a2.356,2.356,0,0,0-2.356-2.356H104.607V10.356A2.356,2.356,0,0,0,102.251,8H59.838a2.356,2.356,0,0,0-2.356,2.356v7.069H40.988a2.356,2.356,0,0,0-2.356,2.356V149.376H24.494V132.65c6.677-1.314,11.781-8.1,11.781-16.261,0-9.1-6.341-16.494-14.138-16.494S8,107.293,8,116.388c0,8.159,5.1,14.948,11.781,16.261v7.611l-3.4-2.271a2.358,2.358,0,0,0-2.615,3.923l6.02,4.012v3.452H10.356a2.356,2.356,0,1,0,0,4.713H151.733a2.356,2.356,0,1,0,0-4.713ZM22.138,114.032a2.356,2.356,0,0,0-2.356,2.356V127.8c-4.062-1.311-7.069-5.929-7.069-11.407,0-6.5,4.227-11.781,9.425-11.781s9.425,5.284,9.425,11.781c0,5.478-3.007,10.1-7.069,11.407V116.388A2.356,2.356,0,0,0,22.138,114.032ZM62.194,12.713h37.7v4.713h-37.7ZM78.688,149.376H76.332v-18.85h2.356Zm7.069,0H83.4v-18.85h2.356Zm32.988,0H90.469V128.17a2.356,2.356,0,0,0-2.356-2.356H73.976a2.356,2.356,0,0,0-2.356,2.356v21.206H43.344V36.275h75.4Zm0-117.814h-75.4V22.138h75.4Zm21.206,82.469a2.356,2.356,0,0,0-2.356,2.356V127.8c-4.062-1.311-7.069-5.929-7.069-11.407,0-6.5,4.227-11.781,9.425-11.781s9.425,5.284,9.425,11.781c0,5.478-3.007,10.1-7.069,11.407V116.388A2.356,2.356,0,0,0,139.951,114.032Z" fill="#691f5b"/>
    <path id="Trazado_29" data-name="Trazado 29" d="M240.494,328H226.356A2.356,2.356,0,0,0,224,330.356v14.138a2.356,2.356,0,0,0,2.356,2.356h14.138a2.356,2.356,0,0,0,2.356-2.356V330.356A2.356,2.356,0,0,0,240.494,328Zm-2.356,14.138h-9.425v-9.425h9.425Z" transform="translate(-152.381 -225.749)" fill="#691f5b"/>
    <path id="Trazado_30" data-name="Trazado 30" d="M160.494,328H146.356A2.356,2.356,0,0,0,144,330.356v14.138a2.356,2.356,0,0,0,2.356,2.356h14.138a2.356,2.356,0,0,0,2.356-2.356V330.356A2.356,2.356,0,0,0,160.494,328Zm-2.356,14.138h-9.425v-9.425h9.425Z" transform="translate(-95.943 -225.749)" fill="#691f5b"/>
    <path id="Trazado_31" data-name="Trazado 31" d="M320.494,328H306.356A2.356,2.356,0,0,0,304,330.356v14.138a2.356,2.356,0,0,0,2.356,2.356h14.138a2.356,2.356,0,0,0,2.356-2.356V330.356A2.356,2.356,0,0,0,320.494,328Zm-2.356,14.138h-9.425v-9.425h9.425Z" transform="translate(-208.818 -225.749)" fill="#691f5b"/>
    <path id="Trazado_32" data-name="Trazado 32" d="M160.494,408H146.356A2.356,2.356,0,0,0,144,410.356v14.138a2.356,2.356,0,0,0,2.356,2.356h14.138a2.356,2.356,0,0,0,2.356-2.356V410.356A2.356,2.356,0,0,0,160.494,408Zm-2.356,14.138h-9.425v-9.425h9.425Z" transform="translate(-95.943 -282.186)" fill="#691f5b"/>
    <path id="Trazado_33" data-name="Trazado 33" d="M320.494,408H306.356A2.356,2.356,0,0,0,304,410.356v14.138a2.356,2.356,0,0,0,2.356,2.356h14.138a2.356,2.356,0,0,0,2.356-2.356V410.356A2.356,2.356,0,0,0,320.494,408Zm-2.356,14.138h-9.425v-9.425h9.425Z" transform="translate(-208.818 -282.186)" fill="#691f5b"/>
    <path id="Trazado_34" data-name="Trazado 34" d="M240.494,256H226.356A2.356,2.356,0,0,0,224,258.356v14.138a2.356,2.356,0,0,0,2.356,2.356h14.138a2.356,2.356,0,0,0,2.356-2.356V258.356A2.356,2.356,0,0,0,240.494,256Zm-2.356,14.138h-9.425v-9.425h9.425Z" transform="translate(-152.381 -174.956)" fill="#691f5b"/>
    <path id="Trazado_35" data-name="Trazado 35" d="M160.494,256H146.356A2.356,2.356,0,0,0,144,258.356v14.138a2.356,2.356,0,0,0,2.356,2.356h14.138a2.356,2.356,0,0,0,2.356-2.356V258.356A2.356,2.356,0,0,0,160.494,256Zm-2.356,14.138h-9.425v-9.425h9.425Z" transform="translate(-95.943 -174.956)" fill="#691f5b"/>
    <path id="Trazado_36" data-name="Trazado 36" d="M320.494,256H306.356A2.356,2.356,0,0,0,304,258.356v14.138a2.356,2.356,0,0,0,2.356,2.356h14.138a2.356,2.356,0,0,0,2.356-2.356V258.356A2.356,2.356,0,0,0,320.494,256Zm-2.356,14.138h-9.425v-9.425h9.425Z" transform="translate(-208.818 -174.956)" fill="#691f5b"/>
    <path id="Trazado_37" data-name="Trazado 37" d="M240.494,184H226.356A2.356,2.356,0,0,0,224,186.356v14.138a2.356,2.356,0,0,0,2.356,2.356h14.138a2.356,2.356,0,0,0,2.356-2.356V186.356A2.356,2.356,0,0,0,240.494,184Zm-2.356,14.138h-9.425v-9.425h9.425Z" transform="translate(-152.381 -124.162)" fill="#691f5b"/>
    <path id="Trazado_38" data-name="Trazado 38" d="M160.494,184H146.356A2.356,2.356,0,0,0,144,186.356v14.138a2.356,2.356,0,0,0,2.356,2.356h14.138a2.356,2.356,0,0,0,2.356-2.356V186.356A2.356,2.356,0,0,0,160.494,184Zm-2.356,14.138h-9.425v-9.425h9.425Z" transform="translate(-95.943 -124.162)" fill="#691f5b"/>
    <path id="Trazado_39" data-name="Trazado 39" d="M320.494,184H306.356A2.356,2.356,0,0,0,304,186.356v14.138a2.356,2.356,0,0,0,2.356,2.356h14.138a2.356,2.356,0,0,0,2.356-2.356V186.356A2.356,2.356,0,0,0,320.494,184Zm-2.356,14.138h-9.425v-9.425h9.425Z" transform="translate(-208.818 -124.162)" fill="#691f5b"/>
    <path id="Trazado_40" data-name="Trazado 40" d="M240.494,112H226.356A2.356,2.356,0,0,0,224,114.356v14.138a2.356,2.356,0,0,0,2.356,2.356h14.138a2.356,2.356,0,0,0,2.356-2.356V114.356A2.356,2.356,0,0,0,240.494,112Zm-2.356,14.138h-9.425v-9.425h9.425Z" transform="translate(-152.381 -73.368)" fill="#691f5b"/>
    <path id="Trazado_41" data-name="Trazado 41" d="M160.494,112H146.356A2.356,2.356,0,0,0,144,114.356v14.138a2.356,2.356,0,0,0,2.356,2.356h14.138a2.356,2.356,0,0,0,2.356-2.356V114.356A2.356,2.356,0,0,0,160.494,112Zm-2.356,14.138h-9.425v-9.425h9.425Z" transform="translate(-95.943 -73.368)" fill="#691f5b"/>
    <path id="Trazado_42" data-name="Trazado 42" d="M320.494,112H306.356A2.356,2.356,0,0,0,304,114.356v14.138a2.356,2.356,0,0,0,2.356,2.356h14.138a2.356,2.356,0,0,0,2.356-2.356V114.356A2.356,2.356,0,0,0,320.494,112Zm-2.356,14.138h-9.425v-9.425h9.425Z" transform="translate(-208.818 -73.368)" fill="#691f5b"/>
  </g>
</svg>
