<svg xmlns="http://www.w3.org/2000/svg" width="125.782" height="126.373" viewBox="0 0 125.782 126.373">
  <g id="Outline" transform="translate(-16 -16)">
    <path id="Trazado_76" data-name="Trazado 76" d="M129.2,83.084H118.722V78.891h6.289a2.1,2.1,0,0,0,1.747-.938,52.752,52.752,0,0,0,6.507-13.779,52.2,52.2,0,0,0,1.825-8.666,8.366,8.366,0,0,0,.4-11.5v-.751a27.253,27.253,0,0,0-54.506,0V62.12a2.1,2.1,0,0,0,2.1,2.1c.066,0,.131,0,.2-.009q.983-.093,1.968-.25a51.574,51.574,0,0,0,3.511,8.769,8.352,8.352,0,0,0-5.677-2.221h-58.7A8.4,8.4,0,0,0,16,78.891v37.735a8.4,8.4,0,0,0,8.385,8.385H38.471L34.93,139.177a2.1,2.1,0,0,0,2.034,2.6H70.506a2.1,2.1,0,0,0,2.1-2.1V131.3a2.1,2.1,0,0,0-2.1-2.1h-.554l.86-4.193H81.637L76.88,141.191l4.022,1.183,4.458-15.16a17.807,17.807,0,0,0,1.739,2.742l.178,11.858,4.193-.063-.189-12.578a2.1,2.1,0,0,0-.49-1.315,13.455,13.455,0,0,1-2.547-4.62,8.33,8.33,0,0,0,3.225-6.611V87.276h2.612l1.452,5.082a13.209,13.209,0,0,0,25.415,0l1.452-5.084h2.612v20.964a2.1,2.1,0,0,0,.492,1.35,14.1,14.1,0,0,1,2.2,14.643l-6.5.722-5.248-2.624,3.855-5.948a6.132,6.132,0,0,0,.849-4.752,6.259,6.259,0,0,0-2.916-3.974,6.58,6.58,0,0,0-8.829,2l-15.01,23.1a2.1,2.1,0,0,0-.281,1.629l1.384,5.786a2.094,2.094,0,0,0,2.494,1.559l2.9-.644a2.089,2.089,0,0,0,1.554.695H131.3A10.494,10.494,0,0,0,141.782,131.3V95.662A12.593,12.593,0,0,0,129.2,83.084ZM97.758,74.7H94.7a48.032,48.032,0,0,1-3.868-7.482,21.259,21.259,0,0,0,6.922,6.68Zm3.05-3.9a17.257,17.257,0,0,1-8.058-8.94,34.118,34.118,0,0,0,19.587-21.315l2.319-7.433a24.6,24.6,0,0,0,10.354,11.4v11.32a16.781,16.781,0,0,1-17.892,16.733,16.005,16.005,0,0,1-6.311-1.766ZM133.4,49.542a4.2,4.2,0,0,1-4.193,4.193V45.349a4.2,4.2,0,0,1,4.193,4.193Zm-4.144,13.413A48.509,48.509,0,0,1,123.871,74.7h-5.149v-.719A20.806,20.806,0,0,0,129.1,57.927h.1a8.422,8.422,0,0,0,1.288-.1,47.238,47.238,0,0,1-1.239,5.127ZM85.18,43.253a23.057,23.057,0,0,1,46.041-1.85,8.382,8.382,0,0,0-2.018-.247h-1.576a20.359,20.359,0,0,1-9.874-11.651l-1.237-3.69a2.1,2.1,0,0,0-3.989.042l-4.193,13.437A29.778,29.778,0,0,1,85.18,59.719ZM39.649,137.589l7.337-29.349h12.76l-3.669,29.349Zm28.761,0H60.3l.524-4.193h7.583ZM65.672,129.2H61.35l.524-4.193h4.657Zm21.6-12.578a4.193,4.193,0,0,1-2.385,3.785,3.881,3.881,0,0,1-.867.292,4.187,4.187,0,0,1-.941.116H62.4L64.2,106.4a2.1,2.1,0,0,0-2.08-2.356H45.349a2.1,2.1,0,0,0-2.034,1.588l-3.8,15.183H24.385a4.2,4.2,0,0,1-4.193-4.193V78.891A4.2,4.2,0,0,1,24.385,74.7h58.7a4.2,4.2,0,0,1,4.193,4.193Zm4.193-33.542V78.891a8.387,8.387,0,0,0-.188-1.765c.177.278.356.554.539.829a2.1,2.1,0,0,0,1.745.935h4.193v4.193Zm25.445,8.133a9.021,9.021,0,0,1-17.349-.01l-1.14-3.989a4.2,4.2,0,0,0,3.526-4.134V75.8a19.971,19.971,0,0,0,4.893.946q.7.047,1.406.047a20.9,20.9,0,0,0,6.28-.962v7.252a4.2,4.2,0,0,0,3.526,4.135ZM129.2,107.5V87.276a8.4,8.4,0,0,1,8.385,8.385v27.473l-5.264.585A18.265,18.265,0,0,0,129.2,107.5Zm-16.774,4.438a2.351,2.351,0,0,1,3.156-.687,2.1,2.1,0,0,1,.987,1.321,1.974,1.974,0,0,1-.281,1.529l-4.4,6.783L105.83,122.1ZM97.91,134.287l1.945-2.993v5.619l-1.25.278Zm33.39,3.3H104.047V126.73l8.091-1.618,7.742,3.871a2.1,2.1,0,0,0,1.169.21l16.54-1.839V131.3a6.3,6.3,0,0,1-6.289,6.289Z" fill="#691f5b"/>
    <path id="Trazado_77" data-name="Trazado 77" d="M356.578,176h-4.193a2.1,2.1,0,0,1-4.193,0H344a6.289,6.289,0,0,0,12.578,0Z" transform="translate(-242.049 -118.073)" fill="#691f5b"/>
    <path id="Trazado_78" data-name="Trazado 78" d="M395.145,134.289A3.145,3.145,0,1,0,392,131.145,3.145,3.145,0,0,0,395.145,134.289Z" transform="translate(-277.471 -82.651)" fill="#691f5b"/>
    <rect id="Rectángulo_48" data-name="Rectángulo 48" width="8.385" height="4.193" transform="translate(24.385 78.891)" fill="#691f5b"/>
    <rect id="Rectángulo_49" data-name="Rectángulo 49" width="8.385" height="4.193" transform="translate(36.964 78.891)" fill="#691f5b"/>
    <rect id="Rectángulo_50" data-name="Rectángulo 50" width="8.385" height="4.193" transform="translate(49.542 78.891)" fill="#691f5b"/>
    <rect id="Rectángulo_51" data-name="Rectángulo 51" width="8.385" height="4.193" transform="translate(62.12 78.891)" fill="#691f5b"/>
    <rect id="Rectángulo_52" data-name="Rectángulo 52" width="8.385" height="4.193" transform="translate(74.698 78.891)" fill="#691f5b"/>
  </g>
</svg>
