<svg xmlns="http://www.w3.org/2000/svg" width="114" height="113.932" viewBox="0 0 114 113.932">
  <g id="sketch" transform="translate(0 -0.153)">
    <g id="Grupo_126" data-name="Grupo 126" transform="translate(9.499 19.084)">
      <g id="Grupo_125" data-name="Grupo 125">
        <path id="Trazado_68" data-name="Trazado 68" d="M49.789,85.179A7.125,7.125,0,0,0,42.664,92.3v19h4.75v-19a2.375,2.375,0,0,1,2.375-2.375h57v-4.75Z" transform="translate(-42.664 -85.179)" fill="#691f5b"/>
      </g>
    </g>
    <g id="Grupo_128" data-name="Grupo 128" transform="translate(9.499 64.209)">
      <g id="Grupo_127" data-name="Grupo 127">
        <path id="Trazado_69" data-name="Trazado 69" d="M49.789,313.97a2.375,2.375,0,0,1-2.375-2.375v-23.75h-4.75V311.6a7.125,7.125,0,0,0,7.125,7.125h23.75v-4.75Z" transform="translate(-42.664 -287.845)" fill="#691f5b"/>
      </g>
    </g>
    <g id="Grupo_130" data-name="Grupo 130" transform="translate(0 38.085)">
      <g id="Grupo_129" data-name="Grupo 129">
        <path id="Trazado_70" data-name="Trazado 70" d="M75.3,228.889l-57.68-57.68a2.375,2.375,0,0,0-3.358,0L.7,184.78a2.375,2.375,0,0,0,0,3.358l57.68,57.679a2.374,2.374,0,0,0,3.358,0L75.3,232.247A2.375,2.375,0,0,0,75.3,228.889Zm-15.25,11.892L5.733,186.459l10.213-10.213,54.321,54.321Z" transform="translate(0 -170.514)" fill="#691f5b"/>
      </g>
    </g>
    <g id="Grupo_132" data-name="Grupo 132" transform="translate(68.875 90.335)">
      <g id="Grupo_131" data-name="Grupo 131">
        <path id="Trazado_71" data-name="Trazado 71" d="M344.956,405.179H309.331v4.75h26.125V421.8a2.375,2.375,0,0,0,2.375,2.375h7.125a9.5,9.5,0,1,0,0-19Zm0,14.25h-4.75v-9.5h4.75a4.75,4.75,0,0,1,0,9.5Z" transform="translate(-309.331 -405.179)" fill="#691f5b"/>
      </g>
    </g>
    <g id="Grupo_134" data-name="Grupo 134" transform="translate(92.625 19.084)">
      <g id="Grupo_133" data-name="Grupo 133">
        <path id="Trazado_72" data-name="Trazado 72" d="M427.873,85.179H416v4.75h11.875a4.75,4.75,0,0,1,4.75,4.75v71.25h4.75V94.679A9.5,9.5,0,0,0,427.873,85.179Z" transform="translate(-415.998 -85.179)" fill="#691f5b"/>
      </g>
    </g>
    <g id="Grupo_136" data-name="Grupo 136" transform="translate(36.321 67.28)">
      <g id="Grupo_135" data-name="Grupo 135">
        <rect id="Rectángulo_31" data-name="Rectángulo 31" width="10.077" height="4.75" transform="translate(0 7.126) rotate(-45)" fill="#691f5b"/>
      </g>
    </g>
    <g id="Grupo_138" data-name="Grupo 138" transform="translate(26.821 57.78)">
      <g id="Grupo_137" data-name="Grupo 137">
        <rect id="Rectángulo_32" data-name="Rectángulo 32" width="10.077" height="4.75" transform="translate(0 7.126) rotate(-45)" fill="#691f5b"/>
      </g>
    </g>
    <g id="Grupo_140" data-name="Grupo 140" transform="translate(45.816 76.78)">
      <g id="Grupo_139" data-name="Grupo 139">
        <rect id="Rectángulo_33" data-name="Rectángulo 33" width="10.077" height="4.75" transform="translate(0 7.126) rotate(-45)" fill="#691f5b"/>
      </g>
    </g>
    <g id="Grupo_142" data-name="Grupo 142" transform="translate(55.32 86.285)">
      <g id="Grupo_141" data-name="Grupo 141">
        <rect id="Rectángulo_34" data-name="Rectángulo 34" width="10.077" height="4.75" transform="translate(0 7.126) rotate(-45)" fill="#691f5b"/>
      </g>
    </g>
    <g id="Grupo_144" data-name="Grupo 144" transform="translate(17.314 48.28)">
      <g id="Grupo_143" data-name="Grupo 143">
        <rect id="Rectángulo_35" data-name="Rectángulo 35" width="10.077" height="4.75" transform="translate(0 7.126) rotate(-45)" fill="#691f5b"/>
      </g>
    </g>
    <g id="Grupo_146" data-name="Grupo 146" transform="translate(52.426 0.153)">
      <g id="Grupo_145" data-name="Grupo 145" transform="translate(0 0)">
        <path id="Trazado_73" data-name="Trazado 73" d="M285.473,5.423l-3.282-3.282a7.187,7.187,0,0,0-9.925,0L236.151,38.255a2.375,2.375,0,0,0,0,3.358L246,51.463a2.374,2.374,0,0,0,3.358,0l36.115-36.115,0,0A7.016,7.016,0,0,0,285.473,5.423Zm-3.356,6.565L247.68,46.425l-6.491-6.491L275.626,5.5a2.321,2.321,0,0,1,3.206,0l3.285,3.28h0A2.268,2.268,0,0,1,282.117,11.988Z" transform="translate(-235.456 -0.153)" fill="#691f5b"/>
      </g>
    </g>
    <g id="Grupo_148" data-name="Grupo 148" transform="translate(47.499 39.184)">
      <g id="Grupo_147" data-name="Grupo 147">
        <path id="Trazado_74" data-name="Trazado 74" d="M229.716,183.8l-10.25,3.422,3.422-10.267-4.513-1.5-4.926,14.775a2.375,2.375,0,0,0,2.254,3.125,2.412,2.412,0,0,0,.741-.114l14.775-4.926Z" transform="translate(-213.328 -175.451)" fill="#691f5b"/>
      </g>
    </g>
    <g id="Grupo_150" data-name="Grupo 150" transform="translate(82.668 8.705)">
      <g id="Grupo_149" data-name="Grupo 149">
        <rect id="Rectángulo_36" data-name="Rectángulo 36" width="4.75" height="13.929" transform="translate(0 3.359) rotate(-45)" fill="#691f5b"/>
      </g>
    </g>
    <g id="Grupo_152" data-name="Grupo 152" transform="translate(49.875 52.335)">
      <g id="Grupo_151" data-name="Grupo 151">
        <rect id="Rectángulo_37" data-name="Rectángulo 37" width="35.625" height="4.75" fill="#691f5b"/>
      </g>
    </g>
    <g id="Grupo_154" data-name="Grupo 154" transform="translate(90.25 52.335)">
      <g id="Grupo_153" data-name="Grupo 153">
        <rect id="Rectángulo_38" data-name="Rectángulo 38" width="4.75" height="4.75" fill="#691f5b"/>
      </g>
    </g>
    <g id="Grupo_156" data-name="Grupo 156" transform="translate(99.75 52.335)">
      <g id="Grupo_155" data-name="Grupo 155">
        <rect id="Rectángulo_39" data-name="Rectángulo 39" width="4.75" height="4.75" fill="#691f5b"/>
      </g>
    </g>
  </g>
</svg>
