<svg xmlns="http://www.w3.org/2000/svg" width="134.441" height="139.12" viewBox="0 0 134.441 139.12">
  <g id="motivation" transform="translate(0.528 0.5)">
    <g id="Grupo_2" data-name="Grupo 2" transform="translate(0)">
      <g id="Grupo_1" data-name="Grupo 1">
        <path id="Trazado_2" data-name="Trazado 2" d="M78.463,162.3h-4.2a2.023,2.023,0,0,0,0,4.046h2.124a2.558,2.558,0,0,1-5.066-.508v-4.379a2.559,2.559,0,0,1,4.823-1.192,2.023,2.023,0,0,0,3.578-1.889,6.605,6.605,0,0,0-12.448,3.081v4.379a6.6,6.6,0,0,0,13.209,0v-1.514A2.023,2.023,0,0,0,78.463,162.3Z" transform="translate(-51.503 -113.078)" fill="#691f5b" stroke="#69235c" stroke-width="1"/>
        <path id="Trazado_3" data-name="Trazado 3" d="M128.369,154.851a6.612,6.612,0,0,0-6.6,6.6v4.379a6.6,6.6,0,0,0,13.209,0v-4.379A6.612,6.612,0,0,0,128.369,154.851Zm2.558,10.984a2.558,2.558,0,1,1-5.116,0v-4.379a2.558,2.558,0,0,1,5.116,0Z" transform="translate(-91.291 -113.078)" fill="#691f5b" stroke="#69235c" stroke-width="1"/>
        <path id="Trazado_4" data-name="Trazado 4" d="M461.069,397.622l-6.444-27.165a27,27,0,0,0-5.464-10.947,2.023,2.023,0,0,0-3.114,2.584,22.927,22.927,0,0,1,4.641,9.3l6.444,27.165a2.023,2.023,0,1,0,3.937-.934Z" transform="translate(-327.754 -261.992)" fill="#691f5b" stroke="#69235c" stroke-width="1"/>
        <path id="Trazado_5" data-name="Trazado 5" d="M413.64,417.515a2.023,2.023,0,0,0-2.023,2.023v21.442a2.023,2.023,0,0,0,4.046,0V419.538A2.023,2.023,0,0,0,413.64,417.515Z" transform="translate(-302.952 -304.884)" fill="#691f5b" stroke="#69235c" stroke-width="1"/>
        <path id="Trazado_6" data-name="Trazado 6" d="M109.18,6.6a10.745,10.745,0,0,0-1.549-1.961C104.511,1.518,99.3,0,91.69,0,70.718,0,61.657,12.333,58.123,19.685a5.752,5.752,0,0,0,.132,5.23,5.821,5.821,0,0,0,.325.526c-.017.356-.054.978-.057,1.375L53.31,28.289,51.689,21.9a3.943,3.943,0,0,0-6.648-1.782l-4.6,4.723-4.595-4.722A3.943,3.943,0,0,0,29.2,21.9l-1.62,6.388L21.24,26.5a3.942,3.942,0,0,0-4.865,4.865l1.79,6.344-6.39,1.619A3.943,3.943,0,0,0,10,45.972l4.723,4.6L10,55.165a3.941,3.941,0,0,0,1.779,6.646l6.389,1.62-1.79,6.339a3.941,3.941,0,0,0,4.865,4.868l6.341-1.79,1.62,6.39a3.944,3.944,0,0,0,6.648,1.779l4.6-4.723,4.595,4.722a3.943,3.943,0,0,0,6.649-1.779l1.62-6.389,6.339,1.79a3.94,3.94,0,0,0,4.868-4.865l-1.79-6.341L66.808,62.4c.291.887.622,1.789,1,2.692,2.866,6.847,7.426,11.461,13.4,13.656a7.35,7.35,0,0,1-.359,1.672l-2.108-.22a7.213,7.213,0,0,0-5.8,2.011,24.68,24.68,0,0,0-4.794,6.7,6.153,6.153,0,0,0-2.771-.87,6.254,6.254,0,0,0-2.283.261,6.542,6.542,0,0,0-6.808-1.06,6.709,6.709,0,0,0-7.6-.255,6.812,6.812,0,0,0-3.414-.793,6.964,6.964,0,0,0-6.642,6.969v.527l-4.455,4.455a10.845,10.845,0,0,0-3.244,7.495,10.611,10.611,0,0,0,3.129,7.737l8.383,8.383V136.1a2.023,2.023,0,1,0,4.046,0V120.923a2.022,2.022,0,0,0-.593-1.431l-8.974-8.974a6.6,6.6,0,0,1-1.946-4.81,6.819,6.819,0,0,1,2.061-4.7l1.592-1.592v5.718a2.023,2.023,0,0,0,4.046,0v-10.6s0-1.37,0-1.37A2.889,2.889,0,0,1,45.4,90.239,2.794,2.794,0,0,1,47.4,91a2.023,2.023,0,0,0,2.9-.126A2.661,2.661,0,0,1,54.4,91a2.023,2.023,0,0,0,2.858.328,2.494,2.494,0,0,1,1.574-.558,2.523,2.523,0,0,1,2.09,1.117,2.023,2.023,0,0,0,2.79.555,2.244,2.244,0,0,1,1.4-.366,2.324,2.324,0,0,1,2.11,2.363V108.36a3.909,3.909,0,0,1-1.009,2.625l-3.424,3.805a2.023,2.023,0,0,0-.519,1.353v4.793a2.023,2.023,0,1,0,4.046,0V116.92l2.9-3.226a7.948,7.948,0,0,0,2.05-5.334v-7.195c3.636-1.655,6.77-2.22,8.861-1.623V136.1a2.023,2.023,0,0,0,4.046,0V99.171a13.657,13.657,0,0,0,11.695-.047V136.1a2.023,2.023,0,0,0,4.046,0V99.537c2.327-.674,5.9.09,10.052,2.194a3.372,3.372,0,0,0,4.847-3.568,34.964,34.964,0,0,0-1.534-6,22.748,22.748,0,0,1,6.819,2.279,2.023,2.023,0,1,0,1.873-3.587,26.792,26.792,0,0,0-8.349-2.739l-2.325-.355a24.072,24.072,0,0,0-4.2-5.549,7.219,7.219,0,0,0-5.8-2.012l-2.1.219a7.443,7.443,0,0,1-.353-1.67c5.977-2.2,10.536-6.809,13.4-13.657a40.553,40.553,0,0,0,2.544-9.125c.277.027.554.046.831.046,4.08,0,8.061-2.919,9.674-7.413a11.494,11.494,0,0,0,.02-7.932A8.95,8.95,0,0,0,120.8,35.63c.984-9.7.52-16.807-1.382-21.118-1.535-3.479-5.2-6.192-10.241-7.909Zm1.98,9.867a32.768,32.768,0,0,0-.248-4.836,9.681,9.681,0,0,1,4.806,4.511c1.57,3.558,1.947,10,1.1,18.672a8.914,8.914,0,0,0-1.526.193,11.537,11.537,0,0,0-5.9-9.552,21.5,21.5,0,0,0,1.767-8.988ZM61.4,39.111a4.731,4.731,0,0,1,3.348.114V50.414c0,.079,0,.633.062,1.533-2.528.223-5.154-1.7-6.236-4.717a7.446,7.446,0,0,1-.044-5.134A4.883,4.883,0,0,1,61.4,39.111Zm3.363-4.1a8.9,8.9,0,0,0-1.623-.2c-.332-2.763-.52-5.1-.56-6.976a39.013,39.013,0,0,1,4.443.84A11.56,11.56,0,0,0,64.758,35.01ZM59.717,60.02a2.024,2.024,0,0,0-1.45,2.511l2.3,8.162-8.162-2.3a2.024,2.024,0,0,0-2.511,1.45l-2.086,8.224L41.9,71.981a2.023,2.023,0,0,0-2.9,0l-5.917,6.081-2.086-8.224a2.024,2.024,0,0,0-2.511-1.45l-8.162,2.3,2.3-8.162a2.024,2.024,0,0,0-1.45-2.511l-8.221-2.085,6.079-5.918a2.023,2.023,0,0,0,0-2.9L12.951,43.2l8.223-2.083a2.024,2.024,0,0,0,1.45-2.511l-2.3-8.165,8.161,2.307a2.024,2.024,0,0,0,2.512-1.45l2.086-8.226L39,29.153a2.023,2.023,0,0,0,2.9,0l5.916-6.08L49.9,31.3a2.024,2.024,0,0,0,2.512,1.45l6.276-1.774q.161,2.127.476,4.694a8.964,8.964,0,0,0-4.423,5,11.494,11.494,0,0,0,.02,7.932c1.613,4.494,5.593,7.412,9.673,7.412.277,0,.554-.018.831-.046.127.79.284,1.637.481,2.528ZM70.958,92.489a22.473,22.473,0,0,1,4.806-7.382,3.182,3.182,0,0,1,2.558-.886l1.8.188V95.393a17.605,17.605,0,0,0-8.86,1.38v-2.33a6.475,6.475,0,0,0-.3-1.953Zm28.954-8.081,1.8-.188a3.18,3.18,0,0,1,2.558.887c1.791,1.743,4.892,5.611,6.3,12.426a21.991,21.991,0,0,0-8.829-2.291,11.287,11.287,0,0,0-1.836.144ZM84.169,83.8a15.917,15.917,0,0,0,.982-4,28.5,28.5,0,0,0,9.746,0,16.1,16.1,0,0,0,.969,4V94.4a9.622,9.622,0,0,1-11.7.064S84.169,83.8,84.169,83.8Zm11.59-49.658c4.816-.613,8.82-2.437,11.383-5.3a7.517,7.517,0,0,1,4.117,6.724V50.411a38.626,38.626,0,0,1-2.793,13.215c-3.521,8.328-9.726,12.55-18.441,12.55S75.1,71.954,71.582,63.626A38.624,38.624,0,0,1,68.79,50.413V35.568a7.527,7.527,0,0,1,2.541-5.642c.866.279,1.733.57,2.611.865a66.117,66.117,0,0,0,11.733,3.115,2.023,2.023,0,0,0,.594-4A62.033,62.033,0,0,1,75.23,26.956a61.233,61.233,0,0,0-12.206-3.141,1.587,1.587,0,0,1-1.216-.835,1.673,1.673,0,0,1-.039-1.541c3.123-6.5,11.163-17.392,29.921-17.392,6.388,0,10.788,1.162,13.077,3.455,2.353,2.355,2.349,5.715,2.345,8.964,0,7.83-3.905,12.665-11.607,13.646a2.023,2.023,0,0,0,.253,4.031ZM121.481,47.23c-1.082,3.015-3.709,4.94-6.237,4.717.059-.9.061-1.454.061-1.533V39.225a4.73,4.73,0,0,1,3.348-.114,4.884,4.884,0,0,1,2.872,2.985A7.45,7.45,0,0,1,121.481,47.23Z" transform="translate(-8.804)" fill="#691f5b" stroke="#69235c" stroke-width="1"/>
        <path id="Trazado_7" data-name="Trazado 7" d="M293.143,208.079h-13.2a2.023,2.023,0,0,0-2.023,2.023v2.142a8.622,8.622,0,0,0,17.243,0V210.1A2.023,2.023,0,0,0,293.143,208.079Zm-2.023,4.166a4.575,4.575,0,0,1-9.15,0v-.119h9.15Z" transform="translate(-205.324 -151.946)" fill="#691f5b" stroke="#69235c" stroke-width="1"/>
        <path id="Trazado_8" data-name="Trazado 8" d="M342.4,155.47a7.965,7.965,0,0,0-9.073,0,2.023,2.023,0,0,0,2.378,3.274,3.931,3.931,0,0,1,4.317,0,2.023,2.023,0,1,0,2.378-3.274Z" transform="translate(-245.176 -112.494)" fill="#691f5b" stroke="#69235c" stroke-width="1"/>
        <path id="Trazado_9" data-name="Trazado 9" d="M257.8,158.3a2.023,2.023,0,0,0-.448-2.826,7.965,7.965,0,0,0-9.073,0,2.023,2.023,0,1,0,2.378,3.274,3.931,3.931,0,0,1,4.317,0,2.023,2.023,0,0,0,2.826-.448Z" transform="translate(-183.069 -112.494)" fill="#691f5b" stroke="#69235c" stroke-width="1"/>
        <path id="Trazado_10" data-name="Trazado 10" d="M301.477,187.149h1.579a2.023,2.023,0,1,0,0-4.046h-1.579a2.023,2.023,0,0,0,0,4.046Z" transform="translate(-221.047 -133.708)" fill="#691f5b" stroke="#69235c" stroke-width="1"/>
        <path id="Trazado_11" data-name="Trazado 11" d="M209,477.094a2.023,2.023,0,0,0-2.023,2.023v5.37a2.023,2.023,0,1,0,4.046,0v-5.37A2.023,2.023,0,0,0,209,477.094Z" transform="translate(-153.515 -348.391)" fill="#691f5b" stroke="#69235c" stroke-width="1"/>
      </g>
    </g>
  </g>
</svg>
