<svg xmlns="http://www.w3.org/2000/svg" width="139.189" height="104.339" viewBox="0 0 139.189 104.339">
  <g id="factory" transform="translate(0 -64.098)">
    <path id="Trazado_90" data-name="Trazado 90" d="M132.94,155.937H128.5V91.18a2.063,2.063,0,0,0-2.779-1.905L84.107,105.361V91.18a2.063,2.063,0,0,0-2.779-1.905L60.092,97.483a2.043,2.043,0,0,0,1.473,3.811L80.021,94.16v61.777H44.03l-4.172-46.252,14.078-5.442a2.043,2.043,0,0,0-1.473-3.811l-12.987,5.02L35.914,65.957A2.043,2.043,0,0,0,33.88,64.1H21.014a2.043,2.043,0,0,0-2.035,1.859l-8.116,89.98H6.25a6.25,6.25,0,0,0,0,12.5H26.658a2.043,2.043,0,0,0,0-4.086H6.25a2.164,2.164,0,1,1,0-4.328h95.279a2.043,2.043,0,1,0,0-4.086H84.107v-46.2L124.415,94.16v61.777H109.7a2.043,2.043,0,1,0,0,4.086h23.239a2.164,2.164,0,1,1,0,4.328H34.83a2.043,2.043,0,0,0,0,4.086h98.11a6.25,6.25,0,0,0,0-12.5ZM32.013,68.184l.581,6.448H22.3l.581-6.448ZM21.931,78.718H32.963l6.965,77.219H14.966Z" fill="#691f5b"/>
    <path id="Trazado_91" data-name="Trazado 91" d="M165.965,250.542v10.189a2.043,2.043,0,0,0,2.043,2.043h8.159a2.043,2.043,0,0,0,2.043-2.043V250.542a2.043,2.043,0,0,0-2.043-2.043h-8.159A2.043,2.043,0,0,0,165.965,250.542Zm4.086,2.043h4.073v6.1h-4.073Z" transform="translate(-120.847 -134.271)" fill="#691f5b"/>
    <path id="Trazado_92" data-name="Trazado 92" d="M232.2,262.773h8.159a2.043,2.043,0,0,0,2.043-2.043V250.541a2.043,2.043,0,0,0-2.043-2.043H232.2a2.043,2.043,0,0,0-2.043,2.043V260.73A2.043,2.043,0,0,0,232.2,262.773Zm2.043-10.189h4.073v6.1h-4.073Z" transform="translate(-167.589 -134.27)" fill="#691f5b"/>
    <path id="Trazado_93" data-name="Trazado 93" d="M176.167,325.211h-8.159a2.043,2.043,0,0,0-2.043,2.043v10.189a2.043,2.043,0,0,0,2.043,2.043h8.159a2.043,2.043,0,0,0,2.043-2.043V327.254A2.043,2.043,0,0,0,176.167,325.211ZM174.124,335.4h-4.073v-6.1h4.073Z" transform="translate(-120.847 -190.128)" fill="#691f5b"/>
    <path id="Trazado_94" data-name="Trazado 94" d="M230.159,337.443a2.043,2.043,0,0,0,2.043,2.043h8.159a2.043,2.043,0,0,0,2.043-2.043V327.254a2.043,2.043,0,0,0-2.043-2.043H232.2a2.043,2.043,0,0,0-2.043,2.043Zm4.086-8.146h4.073v6.1h-4.073Z" transform="translate(-167.589 -190.128)" fill="#691f5b"/>
    <path id="Trazado_95" data-name="Trazado 95" d="M341.512,250.542a2.043,2.043,0,0,0-2.043-2.043H331.31a2.043,2.043,0,0,0-2.043,2.043v10.189a2.043,2.043,0,0,0,2.043,2.043h8.159a2.043,2.043,0,0,0,2.043-2.043Zm-4.086,8.146h-4.073v-6.1h4.073Z" transform="translate(-239.754 -134.271)" fill="#691f5b"/>
    <path id="Trazado_96" data-name="Trazado 96" d="M395.5,262.773h8.159a2.043,2.043,0,0,0,2.043-2.043V250.541a2.043,2.043,0,0,0-2.043-2.043H395.5a2.043,2.043,0,0,0-2.043,2.043V260.73A2.043,2.043,0,0,0,395.5,262.773Zm2.043-10.189h4.073v6.1h-4.073Z" transform="translate(-286.497 -134.27)" fill="#691f5b"/>
    <path id="Trazado_97" data-name="Trazado 97" d="M339.47,325.211h-8.159a2.043,2.043,0,0,0-2.043,2.043v10.189a2.043,2.043,0,0,0,2.043,2.043h8.159a2.043,2.043,0,0,0,2.043-2.043V327.254A2.043,2.043,0,0,0,339.47,325.211ZM337.427,335.4h-4.073v-6.1h4.073Z" transform="translate(-239.755 -190.128)" fill="#691f5b"/>
    <path id="Trazado_98" data-name="Trazado 98" d="M393.461,337.443a2.043,2.043,0,0,0,2.043,2.043h8.159a2.043,2.043,0,0,0,2.043-2.043V327.254a2.043,2.043,0,0,0-2.043-2.043H395.5a2.043,2.043,0,0,0-2.043,2.043Zm4.086-8.146h4.073v6.1h-4.073Z" transform="translate(-286.497 -190.128)" fill="#691f5b"/>
  </g>
</svg>
