<svg xmlns="http://www.w3.org/2000/svg" width="113.562" height="107.352" viewBox="0 0 113.562 107.352">
  <g id="XMLID_1400_" transform="translate(0 -13.999)">
    <g id="XMLID_190_" transform="translate(0 13.999)">
      <path id="XMLID_217_" d="M110.664,65.316a5.693,5.693,0,0,0-5.775.036l-13.3,7.828a2.215,2.215,0,0,0-.954,1.149H86.059v-4.88a7.55,7.55,0,0,0-7.541-7.541H75.767A26.169,26.169,0,1,0,35.731,34.156a19.954,19.954,0,1,0-28.3,27.755A7.549,7.549,0,0,0,0,69.45v44.36a7.55,7.55,0,0,0,7.541,7.541H33.048a2.218,2.218,0,1,0,0-4.436H7.541a3.109,3.109,0,0,1-3.105-3.105V69.45a3.109,3.109,0,0,1,3.105-3.105H78.518a3.109,3.109,0,0,1,3.105,3.105v44.36a3.109,3.109,0,0,1-3.105,3.105H53.011a2.218,2.218,0,1,0,0,4.436H78.518a7.55,7.55,0,0,0,7.541-7.541v-4.88h4.575a2.213,2.213,0,0,0,.954,1.149l13.3,7.828a5.755,5.755,0,0,0,8.674-4.959V70.312a5.694,5.694,0,0,0-2.9-5ZM61.2,18.435A21.737,21.737,0,1,1,39.468,40.172,21.761,21.761,0,0,1,61.2,18.435ZM4.436,46.382A15.526,15.526,0,1,1,19.962,61.908,15.544,15.544,0,0,1,4.436,46.382ZM32.494,61.908a20.05,20.05,0,0,0,6.148-8.487,26.374,26.374,0,0,0,8,8.487ZM86.059,78.765h4.436v25.729H86.059Zm23.067,34.182a1.319,1.319,0,0,1-1.988,1.137L94.931,106.9V76.36l12.208-7.185a1.319,1.319,0,0,1,1.988,1.137Z" transform="translate(0 -13.999)" fill="#691f5b"/>
      <path id="XMLID_1198_" d="M279.541,293.083A7.541,7.541,0,1,0,272,285.541,7.55,7.55,0,0,0,279.541,293.083Zm0-10.646a3.105,3.105,0,1,1-3.105,3.105A3.109,3.109,0,0,1,279.541,282.436Z" transform="translate(-211.67 -219.444)" fill="#691f5b"/>
      <path id="XMLID_1201_" d="M186.218,478a2.219,2.219,0,1,0,1.568.65A2.235,2.235,0,0,0,186.218,478Z" transform="translate(-143.189 -375.084)" fill="#691f5b"/>
      <path id="XMLID_1508_" d="M215.242,88.6a17.3,17.3,0,1,0-17.3-17.3A17.32,17.32,0,0,0,215.242,88.6Zm0-30.165A12.864,12.864,0,1,1,202.378,71.3,12.879,12.879,0,0,1,215.242,58.436Z" transform="translate(-154.038 -45.128)" fill="#691f5b"/>
      <path id="XMLID_1509_" d="M268.157,99.106a2.219,2.219,0,1,0-1.568-.65A2.235,2.235,0,0,0,268.157,99.106Z" transform="translate(-206.953 -76.777)" fill="#691f5b"/>
      <path id="XMLID_1511_" d="M268.157,153.766a2.219,2.219,0,1,0-1.568-.65A2.225,2.225,0,0,0,268.157,153.766Z" transform="translate(-206.953 -119.313)" fill="#691f5b"/>
      <path id="XMLID_1513_" d="M295.5,126.436a2.219,2.219,0,1,0-1.568-.65A2.238,2.238,0,0,0,295.5,126.436Z" transform="translate(-228.229 -98.045)" fill="#691f5b"/>
      <path id="XMLID_1514_" d="M240.827,126.436a2.219,2.219,0,1,0-1.568-.65A2.235,2.235,0,0,0,240.827,126.436Z" transform="translate(-185.685 -98.045)" fill="#691f5b"/>
      <path id="XMLID_1517_" d="M54.2,134.406A10.2,10.2,0,1,0,44,124.2,10.215,10.215,0,0,0,54.2,134.406Zm0-15.97a5.767,5.767,0,1,1-5.767,5.767A5.773,5.773,0,0,1,54.2,118.436Z" transform="translate(-34.241 -91.82)" fill="#691f5b"/>
      <path id="XMLID_1993_" d="M97.029,357.511V336.218A2.218,2.218,0,0,0,94.811,334H56.218A2.218,2.218,0,0,0,54,336.218v21.293a2.218,2.218,0,0,0,2.218,2.218H94.811A2.218,2.218,0,0,0,97.029,357.511Zm-4.436-2.218H58.436V338.436H92.593Z" transform="translate(-42.023 -263.023)" fill="#691f5b"/>
      <path id="XMLID_1996_" d="M272,386.865a2.218,2.218,0,0,0,2.218,2.218h10.646a2.218,2.218,0,0,0,2.218-2.218V376.218A2.218,2.218,0,0,0,284.865,374H274.218A2.218,2.218,0,0,0,272,376.218Zm4.436-8.428h6.21v6.21h-6.21Z" transform="translate(-211.67 -294.151)" fill="#691f5b"/>
    </g>
  </g>
</svg>
