<svg xmlns="http://www.w3.org/2000/svg" width="113.275" height="113.385" viewBox="0 0 113.275 113.385">
  <g id="workspace" transform="translate(0.25 0.5)">
    <path id="Trazado_79" data-name="Trazado 79" d="M498.895,418.5a1.645,1.645,0,0,0-1.645,1.645v17.214a1.646,1.646,0,0,0,3.289,0V420.145A1.645,1.645,0,0,0,498.895,418.5Z" transform="translate(-388.014 -326.728)" fill="#691f5b"/>
    <path id="Trazado_80" data-name="Trazado 80" d="M110.88,54.68H97.966V48.75h3.95a4.365,4.365,0,0,0,4.36-4.36V4.36A4.365,4.365,0,0,0,101.915,0H40.557A4.365,4.365,0,0,0,36.2,4.36v5.905a1.646,1.646,0,0,0,3.289,0V4.36a1.072,1.072,0,0,1,1.071-1.071h61.359a1.072,1.072,0,0,1,1.071,1.071V36.251h-5.02V18.728a1.645,1.645,0,0,0-2.239-1.533c-.43.167-9.5,3.872-11.435,19.056H39.486V18.817a1.646,1.646,0,0,0-3.289,0V44.39a4.365,4.365,0,0,0,4.36,4.36H62.649v5.93H25.307c3.643-3.639,4-9.4,4-14.242a1.645,1.645,0,0,0-1.645-1.645H18.78v-3.1c5.276,1.121,11.028-3.205,10.957-8.694a2.12,2.12,0,0,0-.78-1.93c-3.124-2.062-7.426-1.2-10.177,1.049V23.146c4.7-3.244,5.049-10.883.533-14.449a6.359,6.359,0,0,0-1.5-.921C15.5,6.83,12.948,10.959,12.4,12.553a9.314,9.314,0,0,0,3.1,10.487v3.055A9.2,9.2,0,0,0,7.929,24.07c-1.113.223-3.064.727-3.306,2.076-1.043,5.806,5.534,10.667,10.868,9.548v3.1H5.951a1.645,1.645,0,0,0-1.645,1.645c0,4.835.262,10.6,3.9,14.242H1.895A1.645,1.645,0,0,0,.25,56.325V110.63a1.646,1.646,0,0,0,3.289,0v-7.675H33.253v7.675a1.646,1.646,0,0,0,3.289,0V68.747H94.7c.009.573.063,3.659.07,4.584H66.937c-6.5,0-11.32,1.692-14.319,5.03a12.544,12.544,0,0,0-3.1,9.07A1.645,1.645,0,0,0,51.148,88.9H72.4v2.96H65.927a1.646,1.646,0,0,0,0,3.289H72.4v13.836H51.344a1.646,1.646,0,0,0,0,3.289h22.11a1.624,1.624,0,0,0,1.173,0h22.11a1.646,1.646,0,0,0,0-3.289H75.685V88.9H86.672c3.776,0,6.5-.91,8.344-2.783,3.223-3.282,3.125-8.776,3-15.733-.01-.538-.019-1.085-.027-1.638h11.246v15.46a1.646,1.646,0,0,0,3.289,0V56.325A1.645,1.645,0,0,0,110.88,54.68Zm-89.354-26.5a5.529,5.529,0,0,1,4.917-.688c-.289,3.409-4.434,5.89-7.6,4.816A5.651,5.651,0,0,1,21.527,28.178ZM10.595,31.6a5.758,5.758,0,0,1-2.74-4.11,6.013,6.013,0,0,1,7.6,4.817A5.833,5.833,0,0,1,10.595,31.6ZM17.22,11.221c2.754,2.1,2.631,6.877-.01,9a5.635,5.635,0,0,1-2.044-4.482A5.529,5.529,0,0,1,17.22,11.221Zm-9.6,30.862H25.991c-.278,8.884-2.93,12.39-9.186,12.39C10.465,54.473,7.886,51.08,7.619,42.083ZM92.67,83.813c-1.189,1.21-3.151,1.8-6,1.8H52.827a9.106,9.106,0,0,1,2.237-5.051c2.349-2.614,6.343-3.939,11.872-3.939H94.728C94.592,79.844,94.105,82.352,92.67,83.813ZM102.986,39.54v4.85a1.072,1.072,0,0,1-1.071,1.071h-3.95V39.54ZM92.1,24.419a15.959,15.959,0,0,1,2.572-2.7v41.2a16.8,16.8,0,0,1-2.557-2.768c-3.2-4.329-4.9-10.537-4.9-17.953S88.91,28.64,92.1,24.419ZM84.374,48.75a35.208,35.208,0,0,0,1.346,5.93h-5.9V48.75ZM39.486,44.39V39.54H84a50.649,50.649,0,0,0,.037,5.921H40.557A1.072,1.072,0,0,1,39.486,44.39Zm26.452,4.36h10.6v5.93h-10.6ZM87.011,57.97a21.8,21.8,0,0,0,5.562,7.488H3.539V57.97ZM3.539,99.666V85.851H33.253V99.666Zm29.713-17.1H3.539V68.747H33.253Zm64.713-17.1V57.97h11.27v7.488Z" fill="#691f5b" stroke="#691f5b" stroke-width="1"/>
    <path id="Trazado_81" data-name="Trazado 81" d="M49.086,340.789h12.5a1.646,1.646,0,0,0,0-3.289h-12.5A1.646,1.646,0,0,0,49.086,340.789Z" transform="translate(-36.885 -263.491)" fill="#691f5b"/>
    <path id="Trazado_82" data-name="Trazado 82" d="M61.586,415.5h-12.5a1.646,1.646,0,0,0,0,3.289h12.5A1.646,1.646,0,0,0,61.586,415.5Z" transform="translate(-36.885 -324.386)" fill="#691f5b"/>
  </g>
</svg>
