<svg id="Out_line" data-name="Out line" xmlns="http://www.w3.org/2000/svg" width="161.726" height="161.726" viewBox="0 0 161.726 161.726">
  <path id="Trazado_12" data-name="Trazado 12" d="M136.086,240H130.7a2.7,2.7,0,1,0,0,5.391h5.391a2.7,2.7,0,1,0,0-5.391Z" transform="translate(-90.264 -164.528)" fill="#691f5b"/>
  <path id="Trazado_13" data-name="Trazado 13" d="M210.7,245.391h5.391a2.7,2.7,0,1,0,0-5.391H210.7a2.7,2.7,0,0,0,0,5.391Z" transform="translate(-143.309 -164.528)" fill="#691f5b"/>
  <path id="Trazado_14" data-name="Trazado 14" d="M178.833,259.633a2.7,2.7,0,1,0,5.114-1.7l-2.7-8.086a2.7,2.7,0,1,0-5.114,1.705Z" transform="translate(-122.09 -169.831)" fill="#691f5b"/>
  <ellipse id="Elipse_4" data-name="Elipse 4" cx="2.985" cy="2.558" rx="2.985" ry="2.558" transform="translate(40.079 80.716)" fill="#691f5b"/>
  <circle id="Elipse_5" data-name="Elipse 5" cx="2.558" cy="2.558" r="2.558" transform="translate(67.366 80.716)" fill="#691f5b"/>
  <path id="Trazado_15" data-name="Trazado 15" d="M170.7,309.391h5.391a2.7,2.7,0,0,0,0-5.391H170.7a2.7,2.7,0,0,0,0,5.391Z" transform="translate(-116.787 -206.964)" fill="#691f5b"/>
  <path id="Trazado_16" data-name="Trazado 16" d="M109.945,212.176a39.51,39.51,0,0,0-18.566-5.93,8.051,8.051,0,0,0-2.115-2.732l-3.9-3.249a27.038,27.038,0,0,0,13.646-18.356h.548a10.778,10.778,0,0,0,5.391-20.113v-8.42a11.9,11.9,0,0,0-11.9-11.9h-.282A6.046,6.046,0,0,0,91,137.189l-1.728-1.728a25.471,25.471,0,0,0-36.022,0l-7.133,7.133a.654.654,0,0,1-.925,0,6.045,6.045,0,0,0-10.32,4.274v2.368A16.392,16.392,0,0,0,39.7,160.9c.261.261.532.508.806.749a10.78,10.78,0,0,0,5.143,20.256H46.2a27.039,27.039,0,0,0,13.234,18.126,7.642,7.642,0,0,0-2.6,6.109c-.135.01-.269.023-.406.023h-.218a39.527,39.527,0,0,0-38.347,29.94A62.555,62.555,0,0,0,16,251.266v.724h5.391v-.725a57.144,57.144,0,0,1,1.7-13.844,33.958,33.958,0,0,1,14.469-20.307v13.312a2.7,2.7,0,0,0,3.7,2.5l3.586-1.435-9.491,13.559,4.416,3.092,17.458-24.94,16.677,9.53a2.695,2.695,0,0,1,.864,3.9l-7.852,11.108,4.4,3.112,7.852-11.107a8.072,8.072,0,0,0-.246-9.659l11.63-15.507a8.061,8.061,0,0,0,1.374-2.89c.494.043.987.1,1.478.162l-5.439,23.569a73.81,73.81,0,0,0-1.887,16.572h5.391a68.387,68.387,0,0,1,1.747-15.349l1.691-7.328,9.038,3.615a2.7,2.7,0,0,0,3.7-2.5V217.115a33.959,33.959,0,0,1,14.468,20.3,57.157,57.157,0,0,1,1.705,13.85v.724h5.391v-.725a62.539,62.539,0,0,0-1.864-15.151A39.338,39.338,0,0,0,109.945,212.176ZM99.559,176.518V165.736a5.391,5.391,0,0,1,0,10.782Zm-59.3-29.65a.654.654,0,0,1,1.117-.462,6.052,6.052,0,0,0,8.548,0l7.133-7.133a20.08,20.08,0,0,1,28.4,0L87.184,141a.675.675,0,0,1,0,.953l-3.008,3.008a2.7,2.7,0,1,0,3.812,3.812l1.906-1.906h3.158a6.507,6.507,0,0,1,6.507,6.507v6.97h-3.62a8.032,8.032,0,0,1-5.718-2.369L82.6,150.353a2.7,2.7,0,0,0-3.812,0,33.892,33.892,0,0,1-24.124,9.992H51.368a11.109,11.109,0,0,1-11.109-11.109Zm0,24.259a5.4,5.4,0,0,1,5.391-5.391v10.782A5.4,5.4,0,0,1,40.259,171.127Zm10.782,5.391v-10.79c.109,0,.218.008.327.008h3.293a39.216,39.216,0,0,0,25.966-9.729l5.781,5.781a13.371,13.371,0,0,0,7.759,3.83v10.9A21.6,21.6,0,0,1,80.72,196.5a8.081,8.081,0,0,0-10.991,2.382l-.568.852-.456-.3a7.729,7.729,0,0,0-1.613-.821,2.694,2.694,0,0,0-1.677-1.755,21.6,21.6,0,0,1-14.375-20.337Zm5.39,35.041a10.814,10.814,0,0,0,2.258-.24l.023.046-4.5,6.757-.721,1.031-1.686-7.3a34.185,34.185,0,0,1,4.413-.29Zm-13.476,2.685a34.049,34.049,0,0,1,3.571-1.279L49.072,224l-6.117,2.447Zm43.289-2.9L74.571,226.906l-14.295-8.169,3.789-5.683a2.7,2.7,0,0,0,.168-2.7l-1.779-3.559a2.25,2.25,0,0,1,3.261-2.879l2.7,1.8a2.7,2.7,0,0,0,3.738-.748l2.063-3.095a2.7,2.7,0,0,1,3.968-.575l7.629,6.358a2.694,2.694,0,0,1,.431,3.688ZM96.137,224l2.547-11.035a34.141,34.141,0,0,1,3.571,1.28v12.2Z" transform="translate(-16 -90.264)" fill="#691f5b"/>
  <path id="Trazado_17" data-name="Trazado 17" d="M327.084,16H319a31.005,31.005,0,0,0-26.866,46.469l-3.993,11.979A2.7,2.7,0,0,0,290.7,78a2.728,2.728,0,0,0,.443-.037l15.4-2.567A30.754,30.754,0,0,0,319,78h8.086a31,31,0,1,0,0-62Zm18.108,49.105a25.441,25.441,0,0,1-18.108,7.5H319a25.406,25.406,0,0,1-10.934-2.444,2.7,2.7,0,0,0-1.594-.222l-11.8,1.966,2.971-8.914a2.694,2.694,0,0,0-.282-2.3A25.608,25.608,0,0,1,319,21.391h8.086a25.608,25.608,0,0,1,18.108,43.714Z" transform="translate(-196.355 -16)" fill="#691f5b"/>
  <path id="Trazado_18" data-name="Trazado 18" d="M368.14,43.716A12.146,12.146,0,0,0,359.5,47.3l-.048.049-1.26,1.326a7.46,7.46,0,0,0,10.577,10.524l1.281-1.281a2.7,2.7,0,1,0-3.812-3.812l-1.281,1.281a2.069,2.069,0,1,1-2.927-2.926l.048-.049,1.255-1.321a6.834,6.834,0,0,1,9.643,9.687L370.046,63.7a15.607,15.607,0,0,0-4.6,11.108,2.7,2.7,0,1,0,5.391,0,10.252,10.252,0,0,1,3.022-7.3l2.927-2.927a12.225,12.225,0,0,0-8.644-20.87Z" transform="translate(-241.455 -34.377)" fill="#691f5b"/>
  <ellipse id="Elipse_6" data-name="Elipse 6" cx="2.985" cy="2.558" rx="2.985" ry="2.558" transform="translate(123.647 45.754)" fill="#691f5b"/>
</svg>
